<svg xmlns="http://www.w3.org/2000/svg" xmlns:xlink="http://www.w3.org/1999/xlink" viewBox="0 0 1512 681"><defs><style>.cls-1{fill:none;}.cls-2{fill:#206daf;}.cls-3,.cls-31{font-size:48px;}.cls-3,.cls-31,.cls-8{font-family:Roboto-Bold, Roboto;}.cls-3,.cls-9{font-weight:700;}.cls-4{letter-spacing:-0.01em;}.cls-5{letter-spacing:-0.01em;}.cls-6{opacity:0.3;}.cls-7{fill:#fff;}.cls-32,.cls-8{font-size:12px;}.cls-10{letter-spacing:-0.01em;}.cls-11{letter-spacing:-0.01em;}.cls-12,.cls-19{font-family:Roboto-Italic, Roboto;font-style:italic;}.cls-13{fill:#323232;}.cls-14{fill:#5d5e5e;}.cls-15{letter-spacing:-0.03em;}.cls-16{fill:#edae20;}.cls-17{fill:#6d3390;}.cls-18{fill:#374fa1;}.cls-19{font-size:8px;}.cls-20{letter-spacing:-0.01em;}.cls-21{letter-spacing:-0.01em;}.cls-22{letter-spacing:-0.06em;}.cls-23{letter-spacing:-0.01em;}.cls-24{fill:url(#New_Pattern_Swatch_2);}.cls-25{letter-spacing:-0.01em;}.cls-26{fill:#109a59;}.cls-27{fill:#e24d55;}.cls-28{fill:#b22b2b;}.cls-29{fill:#a51e57;}.cls-30{fill:#f68c1f;}.cls-32{font-family:Roboto-Regular, Roboto;}.cls-33{letter-spacing:-0.01em;}.cls-34{letter-spacing:-0.01em;}.cls-35{letter-spacing:-0.02em;}.cls-36{letter-spacing:-0.05em;}.cls-37{letter-spacing:0.02em;}</style><pattern id="New_Pattern_Swatch_2" data-name="New Pattern Swatch 2" x="90" y="-12" width="89" height="88" patternUnits="userSpaceOnUse" viewBox="0 0 89 88"><rect class="cls-1" width="89" height="88"/><rect class="cls-2" width="89" height="88"/></pattern></defs><title>Circo-Pallet</title><g id="Layer_1" data-name="Layer 1"><text class="cls-3" transform="translate(109 41)">G<tspan class="cls-4" x="33" y="0">r</tspan><tspan class="cls-5" x="50" y="0">a</tspan><tspan x="75" y="0">ys</tspan></text><g id="_Group_" data-name="&lt;Group&gt;"><g id="_Rectangle_" data-name="&lt;Rectangle&gt;"><image id="_Image_" data-name="&lt;Image&gt;" class="cls-6" width="866" height="1115" transform="translate(98 50) scale(0.24)" xlink:href="Circo-Pallet1.png"/><g id="_Group_2" data-name="&lt;Group&gt;"><rect id="_Path_" data-name="&lt;Path&gt;" class="cls-7" x="108" y="60" width="178" height="237.5"/></g></g><text class="cls-8" transform="translate(113 270) scale(0.95 1)"><tspan class="cls-9">Main G<tspan class="cls-10" x="38" y="0">r</tspan><tspan class="cls-11" x="42" y="0">a</tspan><tspan x="49" y="0">y</tspan></tspan><tspan class="cls-12"><tspan x="0" y="14">#323232</tspan></tspan></text><g id="_Rectangle_2" data-name="&lt;Rectangle&gt;"><rect id="_Path_2" data-name="&lt;Path&gt;" class="cls-13" x="108" y="60" width="178" height="188.68"/></g></g><g id="_Group_3" data-name="&lt;Group&gt;"><g id="_Rectangle_3" data-name="&lt;Rectangle&gt;"><image id="_Image_2" data-name="&lt;Image&gt;" class="cls-6" width="866" height="1115" transform="translate(296 50) scale(0.24)" xlink:href="Circo-Pallet2.png"/><g id="_Group_4" data-name="&lt;Group&gt;"><rect id="_Path_3" data-name="&lt;Path&gt;" class="cls-7" x="306" y="60" width="178" height="237.5"/></g></g><text class="cls-8" transform="translate(311 270) scale(0.95 1)"><tspan class="cls-9">Medium G<tspan class="cls-10" x="55" y="0">r</tspan><tspan class="cls-11" x="59" y="0">a</tspan><tspan x="66" y="0">y</tspan></tspan><tspan class="cls-12"><tspan x="0" y="14">#353535</tspan></tspan></text><g id="_Rectangle_4" data-name="&lt;Rectangle&gt;"><rect id="_Path_4" data-name="&lt;Path&gt;" class="cls-13" x="306" y="60" width="178" height="188.68"/></g></g><g id="_Group_5" data-name="&lt;Group&gt;"><g id="_Rectangle_5" data-name="&lt;Rectangle&gt;"><image id="_Image_3" data-name="&lt;Image&gt;" class="cls-6" width="866" height="1115" transform="translate(98 302) scale(0.24)" xlink:href="Circo-Pallet3.png"/><g id="_Group_6" data-name="&lt;Group&gt;"><rect id="_Path_5" data-name="&lt;Path&gt;" class="cls-7" x="108" y="312" width="178" height="237.5"/></g></g><text class="cls-8" transform="translate(113 522) scale(0.95 1)"><tspan class="cls-9">Light G<tspan class="cls-10" x="38" y="0">r</tspan><tspan class="cls-11" x="43" y="0">a</tspan><tspan x="49" y="0">y</tspan></tspan><tspan class="cls-12"><tspan x="0" y="14">#5d5e5e</tspan></tspan></text><g id="_Rectangle_6" data-name="&lt;Rectangle&gt;"><rect id="_Path_6" data-name="&lt;Path&gt;" class="cls-14" x="108" y="312" width="178" height="188.68"/></g></g><text x="90" y="-12"></text><text class="cls-3" transform="translate(523 42)">Colors</text><g id="_Group_7" data-name="&lt;Group&gt;"><g id="_Rectangle_7" data-name="&lt;Rectangle&gt;"><image id="_Image_4" data-name="&lt;Image&gt;" class="cls-6" width="866" height="1115" transform="translate(512 51) scale(0.24)" xlink:href="Circo-Pallet4.png"/><g id="_Group_8" data-name="&lt;Group&gt;"><rect id="_Path_7" data-name="&lt;Path&gt;" class="cls-7" x="522" y="61" width="178" height="237.5"/></g></g><text class="cls-8" transform="translate(527 271) scale(0.95 1)"><tspan class="cls-9"><tspan class="cls-15">Y</tspan><tspan x="7" y="0">ellow</tspan></tspan><tspan class="cls-12"><tspan x="0" y="14">#edae20</tspan></tspan></text><g id="_Rectangle_8" data-name="&lt;Rectangle&gt;"><rect id="_Path_8" data-name="&lt;Path&gt;" class="cls-16" x="522" y="61" width="178" height="188.68"/></g></g><g id="_Group_9" data-name="&lt;Group&gt;"><g id="_Rectangle_9" data-name="&lt;Rectangle&gt;"><image id="_Image_5" data-name="&lt;Image&gt;" class="cls-6" width="866" height="1115" transform="translate(710 51) scale(0.24)" xlink:href="Circo-Pallet5.png"/><g id="_Group_10" data-name="&lt;Group&gt;"><rect id="_Path_9" data-name="&lt;Path&gt;" class="cls-7" x="720" y="61" width="178" height="237.5"/></g></g><text class="cls-8" transform="translate(725 271) scale(0.95 1)"><tspan class="cls-9">Purple</tspan><tspan class="cls-12"><tspan x="0" y="14">#6d3390</tspan></tspan></text><g id="_Rectangle_10" data-name="&lt;Rectangle&gt;"><rect id="_Path_10" data-name="&lt;Path&gt;" class="cls-17" x="720" y="61" width="178" height="188.68"/></g></g><g id="_Group_11" data-name="&lt;Group&gt;"><g id="_Rectangle_11" data-name="&lt;Rectangle&gt;"><image id="_Image_6" data-name="&lt;Image&gt;" class="cls-6" width="866" height="1115" transform="translate(514 302) scale(0.24)" xlink:href="Circo-Pallet6.png"/><g id="_Group_12" data-name="&lt;Group&gt;"><rect id="_Path_11" data-name="&lt;Path&gt;" class="cls-7" x="524" y="312" width="178" height="237.5"/></g></g><text class="cls-8" transform="translate(529 522) scale(0.95 1)"><tspan class="cls-9">Blue</tspan><tspan class="cls-12"><tspan x="0" y="14">#374fa1</tspan></tspan></text><g id="_Rectangle_12" data-name="&lt;Rectangle&gt;"><rect id="_Path_12" data-name="&lt;Path&gt;" class="cls-18" x="524" y="312" width="178" height="188.68"/></g></g><g id="_Group_13" data-name="&lt;Group&gt;"><g id="_Rectangle_13" data-name="&lt;Rectangle&gt;"><image id="_Image_7" data-name="&lt;Image&gt;" class="cls-6" width="866" height="1115" transform="translate(710 302) scale(0.24)" xlink:href="Circo-Pallet7.png"/><g id="_Group_14" data-name="&lt;Group&gt;"><rect id="_Path_13" data-name="&lt;Path&gt;" class="cls-7" x="720" y="312" width="178" height="237.5"/></g></g><text class="cls-8" transform="translate(725 522) scale(0.95 1)"><tspan class="cls-9">Light Blue</tspan><tspan class="cls-12"><tspan x="0" y="14">C: 75% M: 68% </tspan><tspan x="79" y="14">Y: 67% K: 9</tspan><tspan x="136" y="14">0%</tspan></tspan><tspan class="cls-19"><tspan x="0" y="24">(Use of C</tspan><tspan class="cls-20" x="32" y="24">M</tspan><tspan x="39" y="24">YK was an er</tspan><tspan class="cls-21" x="84" y="24">r</tspan><tspan x="86" y="24">o</tspan><tspan class="cls-22" x="91" y="24">r</tspan><tspan x="93" y="24">. Use until er</tspan><tspan class="cls-21" x="136" y="24">r</tspan><tspan x="139" y="24">or is fi</tspan><tspan class="cls-23" x="160" y="24">x</tspan><tspan x="164" y="24">ed)</tspan></tspan></text><g id="_Rectangle_14" data-name="&lt;Rectangle&gt;"><rect id="_Path_14" data-name="&lt;Path&gt;" class="cls-24" x="720" y="312" width="178" height="188.68"/></g><text x="90" y="-12"></text></g><g id="_Group_15" data-name="&lt;Group&gt;"><g id="_Rectangle_15" data-name="&lt;Rectangle&gt;"><image id="_Image_8" data-name="&lt;Image&gt;" class="cls-6" width="866" height="1115" transform="translate(908 50) scale(0.24)" xlink:href="Circo-Pallet8.png"/><g id="_Group_16" data-name="&lt;Group&gt;"><rect id="_Path_15" data-name="&lt;Path&gt;" class="cls-7" x="918" y="60" width="178" height="237.5"/></g></g><text class="cls-8" transform="translate(923 270) scale(0.95 1)"><tspan class="cls-9">G<tspan class="cls-25" x="8" y="0">r</tspan><tspan x="12" y="0">een</tspan></tspan><tspan class="cls-12"><tspan x="0" y="14">#109a59</tspan></tspan></text><g id="_Rectangle_16" data-name="&lt;Rectangle&gt;"><rect id="_Path_16" data-name="&lt;Path&gt;" class="cls-26" x="918" y="60" width="178" height="188.68"/></g></g><g id="_Group_17" data-name="&lt;Group&gt;"><g id="_Rectangle_17" data-name="&lt;Rectangle&gt;"><image id="_Image_9" data-name="&lt;Image&gt;" class="cls-6" width="866" height="1115" transform="translate(1106 50) scale(0.24)" xlink:href="Circo-Pallet9.png"/><g id="_Group_18" data-name="&lt;Group&gt;"><rect id="_Path_17" data-name="&lt;Path&gt;" class="cls-7" x="1116" y="60" width="178" height="237.5"/></g></g><text class="cls-8" transform="translate(1121 270) scale(0.95 1)"><tspan class="cls-9">Salmon</tspan><tspan class="cls-12"><tspan x="0" y="14">#e24d55</tspan></tspan></text><g id="_Rectangle_18" data-name="&lt;Rectangle&gt;"><rect id="_Path_18" data-name="&lt;Path&gt;" class="cls-27" x="1116" y="60" width="178" height="188.68"/></g></g><g id="_Group_19" data-name="&lt;Group&gt;"><g id="_Rectangle_19" data-name="&lt;Rectangle&gt;"><image id="_Image_10" data-name="&lt;Image&gt;" class="cls-6" width="866" height="1115" transform="translate(910 301) scale(0.24)" xlink:href="Circo-Pallet10.png"/><g id="_Group_20" data-name="&lt;Group&gt;"><rect id="_Path_19" data-name="&lt;Path&gt;" class="cls-7" x="920" y="311" width="178" height="237.5"/></g></g><text class="cls-8" transform="translate(925 521) scale(0.95 1)"><tspan class="cls-9">Red</tspan><tspan class="cls-12"><tspan x="0" y="14">#b22b2b</tspan></tspan></text><g id="_Rectangle_20" data-name="&lt;Rectangle&gt;"><rect id="_Path_20" data-name="&lt;Path&gt;" class="cls-28" x="920" y="311" width="178" height="188.68"/></g></g><g id="_Group_21" data-name="&lt;Group&gt;"><g id="_Rectangle_21" data-name="&lt;Rectangle&gt;"><image id="_Image_11" data-name="&lt;Image&gt;" class="cls-6" width="866" height="1115" transform="translate(1106 301) scale(0.24)" xlink:href="Circo-Pallet11.png"/><g id="_Group_22" data-name="&lt;Group&gt;"><rect id="_Path_21" data-name="&lt;Path&gt;" class="cls-7" x="1116" y="311" width="178" height="237.5"/></g></g><text class="cls-8" transform="translate(1121 521) scale(0.95 1)"><tspan class="cls-9">Pink</tspan><tspan class="cls-12"><tspan x="0" y="14">#a51e57</tspan></tspan></text><g id="_Rectangle_22" data-name="&lt;Rectangle&gt;"><rect id="_Path_22" data-name="&lt;Path&gt;" class="cls-29" x="1116" y="311" width="178" height="188.68"/></g></g><g id="_Group_23" data-name="&lt;Group&gt;"><g id="_Rectangle_23" data-name="&lt;Rectangle&gt;"><image id="_Image_12" data-name="&lt;Image&gt;" class="cls-6" width="866" height="1115" transform="translate(1304 49) scale(0.24)" xlink:href="Circo-Pallet12.png"/><g id="_Group_24" data-name="&lt;Group&gt;"><rect id="_Path_23" data-name="&lt;Path&gt;" class="cls-7" x="1314" y="59" width="178" height="237.5"/></g></g><text class="cls-8" transform="translate(1319 269) scale(0.95 1)"><tspan class="cls-9">O<tspan class="cls-10" x="8" y="0">r</tspan><tspan x="12" y="0">ange</tspan></tspan><tspan class="cls-12"><tspan x="0" y="14">#f68c1f</tspan></tspan></text><g id="_Rectangle_24" data-name="&lt;Rectangle&gt;"><rect id="_Path_24" data-name="&lt;Path&gt;" class="cls-30" x="1314" y="59" width="178" height="188.68"/></g></g><text x="90" y="-12"></text><text class="cls-31" transform="translate(117 609)"><tspan class="cls-9">Instructions</tspan><tspan class="cls-32"><tspan x="0" y="29">Sur</tspan><tspan class="cls-33" x="18" y="29">r</tspan><tspan x="22" y="29">ounding ci</tspan><tspan class="cls-34" x="77" y="29">r</tspan><tspan x="81" y="29">cle should be done with a color or alternate g</tspan><tspan class="cls-35" x="320" y="29">r</tspan><tspan class="cls-5" x="323" y="29">a</tspan><tspan class="cls-36" x="330" y="29">y</tspan><tspan x="335" y="29">.</tspan><tspan x="0" y="43">Main po</tspan><tspan class="cls-37" x="43" y="43">r</tspan><tspan x="47" y="43">tion of icon should be main g</tspan><tspan class="cls-35" x="202" y="43">r</tspan><tspan class="cls-5" x="205" y="43">a</tspan><tspan x="212" y="43">y or combination of main and alternate g</tspan><tspan class="cls-35" x="427" y="43">r</tspan><tspan class="cls-5" x="431" y="43">a</tspan><tspan x="438" y="43">ys </tspan></tspan></text></g></svg>