<?xml version="1.0" encoding="UTF-8"?>
<svg width="512px" height="512px" viewBox="0 0 512 512" version="1.1" xmlns="http://www.w3.org/2000/svg" xmlns:xlink="http://www.w3.org/1999/xlink">
    <!-- Generator: Sketch 47.1 (45422) - http://www.bohemiancoding.com/sketch -->
    <title>ic_brave</title>
    <desc>Created with Sketch.</desc>
    <defs></defs>
    <g id="Page-1" stroke="none" stroke-width="1" fill="none" fill-rule="evenodd">
        <g id="circo-template">
            <g id="Layer_1"></g>
            <g id="Layer_2" transform="translate(21.000000, 21.000000)"></g>
        </g>
        <g id="Group" transform="translate(21.000000, 21.000000)" fill-rule="nonzero">
            <g id="brave">
                <circle id="Oval" fill="#F68C1F" cx="235" cy="235" r="234.7"></circle>
                <path d="M405,163.971039 L392.648437,130.63249 L401.148437,111.505992 C402.210937,108.982357 401.679687,106.193076 399.820312,104.200732 L376.578125,80.6910786 C366.351562,70.463715 351.210937,66.8774967 337.53125,71.6591212 L331.023437,73.9171105 L295.429687,35.3984687 L235.265625,35 L174.304687,35.5312916 L138.84375,74.3155792 L132.46875,72.0575899 C118.65625,67.1431425 103.382812,70.7293609 93.15625,81.2223702 L69.515625,105.130493 C67.921875,106.724368 67.5234375,108.982357 68.3203125,110.9747 L77.21875,130.898136 L65,164.236684 L72.96875,194.387483 L109.09375,331.593542 C113.210937,347.399467 122.773437,361.213049 136.1875,370.776298 C136.1875,370.776298 180.015625,401.724035 223.179687,429.749667 C227.03125,432.273302 231.015625,434 235.265625,434 C239.515625,434 243.5,432.273302 247.351562,429.749667 C295.960937,397.87217 334.34375,370.643475 334.34375,370.643475 C347.625,361.080226 357.1875,347.266644 361.304687,331.460719 L397.164062,194.25466 L405,163.971039 Z" id="Shape" fill="#353535"></path>
                <path d="M110.681293,336.971594 L65,166.513873 L78.3733641,133.140325 L69.1046959,108.40933 L91.2170901,85.8057318 C98.4996151,79.2905771 112.799846,77.0302173 119.420323,80.8861252 L153.979215,100.830476 L198.99846,111.334501 L234.08699,96.7086438 L237,399.463894 C236.470362,443.075542 239.250962,438.42186 207.340262,417.812697 L128.556582,364.760723 C120.082371,356.65002 113.594303,347.475619 110.681293,336.971594 Z" id="Shape" fill="#323232"></path>
                <path d="M333.688627,370.400448 L266.618824,416.323194 C247.929412,426.542996 238.916078,436.630073 237.458039,431.719259 C236.265098,427.870243 237.192941,416.588643 236.795294,399.068983 C236.684111,357.746884 236.600724,326.755309 236.545132,306.094259 C236.423992,261.07133 236.242281,193.536937 236,103.491079 C236.132549,100.571136 238.120784,95.660322 241.567059,96.1912208 L275.764706,106.543747 L325.072941,98.8457147 L357.68,74.8225443 C361.126275,72.1680503 366.163137,72.4334997 369.344314,75.4861677 L398.505098,103.358355 C401.156078,106.145573 401.288627,111.587286 399.698039,115.038128 L391.612549,130.036019 L405,164.677165 L358.872941,336.422925 C351.715294,357.791602 341.641569,363.366039 333.688627,370.400448 Z" id="Shape" fill="#353535"></path>
                <path d="M243.487119,280.21633 C241.890554,279.540591 240.160942,279 239.628754,279 L237.5,279 L235.371246,279 C234.839058,279 233.109446,279.540591 231.512881,280.21633 L214.216758,287.514313 C212.620193,288.190052 209.959251,289.406382 208.362686,290.217269 L182.285455,304.002346 C180.688889,304.813233 180.555842,306.299859 182.01936,307.381042 L205.036508,323.869076 C206.500026,324.950258 208.761827,326.70718 210.092298,327.92351 L220.336924,336.843266 C221.667395,338.059596 223.796149,339.951666 225.12662,341.167996 L234.972105,350.087752 C236.302576,351.304083 238.43133,351.304083 239.761801,350.087752 L249.87338,341.167996 C251.203851,339.951666 253.332605,338.059596 254.663076,336.843266 L264.907702,327.788362 C266.238173,326.572032 268.499974,324.81511 269.963492,323.733928 L292.98064,307.110746 C294.444158,306.029564 294.311111,304.542938 292.714545,303.732051 L266.637314,290.217269 C265.040749,289.406382 262.379807,288.190052 260.783242,287.514313 L243.487119,280.21633 Z" id="Shape" fill="#F68C1F"></path>
                <path d="M367.467813,169.920669 C368,168.18938 368,167.5235 368,167.5235 C368,165.792212 367.866953,162.862339 367.60086,161.131051 L366.270393,157.268946 C365.472113,155.670833 364.141646,153.140488 363.077273,151.675552 L348.042998,129.435154 C347.111671,127.970218 345.382065,125.706226 344.184644,124.241289 L324.759829,99.8700749 C323.695456,98.5383146 322.631082,97.3397303 322.498036,97.4729063 C322.231942,97.4729063 320.768429,97.7392584 319.038822,98.0056105 L289.369413,103.865356 C287.639806,104.264884 284.845825,104.797588 283.116219,105.06394 C280.854425,105.463468 278.060445,105.330292 276.330838,104.797588 L251.451109,96.8070262 C249.721502,96.274322 246.927522,95.4752658 245.330962,95.0757377 C245.330962,95.0757377 240.275188,93.8771534 236.150741,94.0103294 C232.026294,94.0103294 226.97052,95.0757377 226.97052,95.0757377 C225.240913,95.4752658 222.446933,96.274322 220.850373,96.8070262 L195.970644,104.797588 C194.241037,105.330292 191.447057,105.463468 189.71745,105.197116 C187.455657,104.797588 184.661676,104.131708 182.932069,103.865356 L152.996567,98.2719625 C151.26696,97.8724344 149.803446,97.7392584 149.803446,97.7392584 C149.404306,97.7392584 148.339933,98.8046667 147.275559,100.136427 L127.850744,124.507641 C126.786371,125.839402 125.056764,128.23657 123.99239,129.701507 L108.958116,151.941904 C108.026789,153.406841 106.563276,155.937185 105.764995,157.535298 L104.434529,161.397403 C104.168435,163.128691 103.902342,166.058564 104.035389,167.789852 C104.035389,167.789852 104.035389,168.322556 104.567575,170.187021 C105.498902,173.383246 107.760696,176.313118 107.760696,176.313118 C108.825069,177.644879 110.820769,179.908871 112.018189,181.107456 L156.05664,227.98542 C157.25406,229.31718 157.6532,231.714349 156.987967,233.312461 L147.807746,255.020155 C147.142513,256.618267 147.009466,259.281788 147.674699,261.013076 L150.202586,267.805054 C152.331333,273.531623 155.923594,278.592312 160.713274,282.454417 L169.627402,289.645923 C170.957868,290.711332 173.352709,291.11086 174.949269,290.311803 L203.155164,276.861024 C204.751724,276.061968 207.146565,274.463855 208.477031,273.265271 L228.700127,255.020155 C231.627154,252.356634 231.7602,247.828649 229.099267,244.898776 L186.657376,216.265929 C185.193863,215.333696 184.661676,213.20288 185.459956,211.604767 L204.086491,176.446295 C204.884771,174.848182 205.017818,172.317837 204.352584,170.719725 L202.090791,165.52586 C201.425557,163.927747 199.429857,162.063283 197.833297,161.397403 L143.151112,140.888293 C141.554552,140.222413 141.554552,139.556533 143.284159,139.423357 L178.541529,136.093956 C180.271136,135.96078 183.065116,136.227132 184.794723,136.62666 L216.193739,145.416279 C217.923346,145.948983 218.987719,147.680271 218.721626,149.41156 L207.811798,209.207599 C207.545705,210.938887 207.545705,213.336056 207.944845,214.667816 C208.343985,215.999577 210.073592,217.198161 211.803198,217.597689 L233.622854,222.25885 C235.352461,222.658378 238.146441,222.658378 239.876048,222.25885 L260.23219,217.597689 C261.961797,217.198161 263.691403,215.866401 264.090543,214.667816 C264.489683,213.469232 264.62273,210.938887 264.22359,209.207599 L253.446809,149.41156 C253.180716,147.680271 254.245089,145.815807 255.974696,145.416279 L287.373712,136.62666 C289.103319,136.093956 291.897299,135.96078 293.626906,136.093956 L328.884276,139.423357 C330.613883,139.556533 330.74693,140.222413 329.017323,140.888293 L274.335138,161.663755 C272.738578,162.329635 270.742877,164.060923 270.077644,165.792212 L267.81585,170.986077 C267.150617,172.58419 267.150617,175.24771 268.081944,176.712647 L286.841526,211.87112 C287.639806,213.469232 287.107619,215.466872 285.644105,216.532281 L243.202215,245.298304 C240.408235,248.095001 240.674328,252.756162 243.601355,255.419683 L263.82445,273.664799 C265.154917,274.863384 267.549757,276.461496 269.146317,277.127376 L297.48526,290.578156 C299.08182,291.377212 301.47666,290.977684 302.807127,289.912275 L311.721255,282.587594 C316.510935,278.725489 320.103195,273.664799 322.098896,267.93823 L324.626783,261.146252 C325.292016,259.54814 325.158969,256.751443 324.493736,255.153331 L315.313515,233.445637 C314.648282,231.847525 315.047422,229.450356 316.244842,228.118596 L360.283293,181.240632 C361.480713,179.908871 363.343366,177.778055 364.540786,176.446295 C364.274693,176.046766 366.669533,173.116894 367.467813,169.920669 Z" id="Shape" fill="#F68C1F"></path>
            </g>
        </g>
    </g>
</svg>